<svg width="23" height="23" viewBox="0 0 23 23" fill="none" xmlns="http://www.w3.org/2000/svg">
<path d="M18.6114 17.7381C19.1877 17.1445 19.6415 16.4431 19.9467 15.6741C20.252 14.9051 20.4028 14.0835 20.3905 13.2562C20.3783 12.4289 20.2032 11.6121 19.8753 10.8525C19.5473 10.0929 19.073 9.40529 18.4794 8.82898C17.8857 8.25266 17.1843 7.79893 16.4153 7.49366C15.6463 7.1884 14.8247 7.0376 13.9974 7.04986C13.1701 7.06213 12.3534 7.23722 11.5937 7.56514C10.8341 7.89306 10.1465 8.36739 9.57019 8.96105L14.0908 13.3496L18.6114 17.7381Z" fill="#24211C"/>
<mask id="path-2-inside-1_26_10" fill="white">
<path d="M4.45508 4.45509C3.87003 5.04014 3.40595 5.73469 3.08932 6.4991C2.7727 7.2635 2.60973 8.08278 2.60973 8.91017C2.60973 9.73755 2.7727 10.5568 3.08932 11.3212C3.40595 12.0856 3.87003 12.7802 4.45508 13.3652C5.04013 13.9503 5.73468 14.4144 6.49909 14.731C7.26349 15.0476 8.08277 15.2106 8.91016 15.2106C9.73754 15.2106 10.5568 15.0476 11.3212 14.731C12.0856 14.4144 12.7802 13.9503 13.3652 13.3652L8.91016 8.91017L4.45508 4.45509Z"/>
</mask>
<path d="M4.45508 4.45509C3.87003 5.04014 3.40595 5.73469 3.08932 6.4991C2.7727 7.2635 2.60973 8.08278 2.60973 8.91017C2.60973 9.73755 2.7727 10.5568 3.08932 11.3212C3.40595 12.0856 3.87003 12.7802 4.45508 13.3652C5.04013 13.9503 5.73468 14.4144 6.49909 14.731C7.26349 15.0476 8.08277 15.2106 8.91016 15.2106C9.73754 15.2106 10.5568 15.0476 11.3212 14.731C12.0856 14.4144 12.7802 13.9503 13.3652 13.3652L8.91016 8.91017L4.45508 4.45509Z" stroke="#24211C" stroke-width="2" mask="url(#path-2-inside-1_26_10)"/>
</svg>
